<?xml version="1.0" encoding="UTF-8" standalone="no"?>
<!-- Created with Inkscape (http://www.inkscape.org/) -->

<svg
   xmlns:dc="http://purl.org/dc/elements/1.1/"
   xmlns:cc="http://creativecommons.org/ns#"
   xmlns:rdf="http://www.w3.org/1999/02/22-rdf-syntax-ns#"
   xmlns:svg="http://www.w3.org/2000/svg"
   xmlns="http://www.w3.org/2000/svg"
   xmlns:sodipodi="http://sodipodi.sourceforge.net/DTD/sodipodi-0.dtd"
   xmlns:inkscape="http://www.inkscape.org/namespaces/inkscape"
   width="744.09448"
   height="524.40942"
   id="svg4083"
   version="1.1"
   inkscape:version="0.48.2 r9819"
   sodipodi:docname="New document 8">
  <defs
     id="defs3" />
  <sodipodi:namedview
     inkscape:document-units="mm"
     id="base"
     pagecolor="#ffffff"
     bordercolor="#666666"
     borderopacity="1.0"
     inkscape:pageopacity="0.0"
     inkscape:pageshadow="2"
     inkscape:zoom="0.7"
     inkscape:cx="560.47221"
     inkscape:cy="125.75423"
     inkscape:current-layer="layer1"
     showgrid="false"
     units="mm"
     inkscape:window-width="1280"
     inkscape:window-height="952"
     inkscape:window-x="-4"
     inkscape:window-y="-4"
     inkscape:window-maximized="1" />
  <metadata
     id="metadata4">
    <rdf:RDF>
      <cc:Work
         rdf:about="">
        <dc:format>image/svg+xml</dc:format>
        <dc:type
           rdf:resource="http://purl.org/dc/dcmitype/StillImage" />
        <cc:license
           rdf:resource="" />
        <dc:title></dc:title>
      </cc:Work>
    </rdf:RDF>
  </metadata>
  <g
     inkscape:label="Layer 1"
     inkscape:groupmode="layer"
     id="layer1"
     transform="translate(0,-527.95269)">
    <path
       style="opacity:0.9;fill:#c4ccdf;fill-opacity:1;stroke:none"
       d="m 289.07932,989.50551 -139.27346,-0.24881 0,-191.34633 c 0,-105.24049 0.109,-191.3944 0.24222,-191.45313 0.25018,-0.11031 437.12697,-6.35384 437.2878,-6.24941 0.0497,0.0322 -1.56283,81.80608 -3.5833,181.71965 -2.02046,99.91357 -3.69603,187.65584 -3.72349,194.98284 l -0.0499,13.32181 -75.8132,-0.2389 c -41.69726,-0.13141 -138.48625,-0.35088 -215.08665,-0.48772 z m 261.59381,-17.87014 c -1.35191,-2.82716 -3.18089,-6.71698 -4.06441,-8.64406 -2.43432,-5.30956 -17.37259,-16.65061 -24.76108,-18.79846 -1.33218,-0.38726 -4.82007,-2.15108 -7.75087,-3.91958 -2.93079,-1.7685 -10.77855,-4.97546 -17.43946,-7.12656 -6.6609,-2.15111 -13.63668,-4.9379 -15.50174,-6.19286 -4.07154,-2.73967 -25.62735,-12.81861 -32.54122,-15.21544 -2.71081,-0.93975 -6.28604,-2.41053 -7.94497,-3.26839 -1.65892,-0.85786 -4.31469,-1.55975 -5.90171,-1.55975 -3.3221,0 -5.93047,-2.18369 -5.93047,-4.9649 0,-1.05596 -1.08997,-3.52394 -2.42215,-5.48443 -1.88285,-2.77085 -2.42215,-4.79309 -2.42215,-9.08243 0,-4.7788 -0.33514,-5.78156 -2.50204,-7.48603 -1.37611,-1.08247 -3.33805,-2.23345 -4.35985,-2.55776 -1.72878,-0.54869 -1.85783,-1.66183 -1.85783,-16.0261 0,-8.81157 0.38466,-15.43645 0.89628,-15.43645 0.96267,0 4.67014,-5.81796 7.7175,-12.11074 1.0322,-2.13149 2.81709,-8.38091 3.96642,-13.8876 1.66402,-7.97271 2.74912,-10.87607 5.32699,-14.25327 1.78052,-2.33261 3.4808,-5.45689 3.77841,-6.94286 2.11752,-10.57294 3.67172,-34.3306 2.33402,-35.67823 -0.37745,-0.38026 -1.82563,-0.69138 -3.21818,-0.69138 l -2.5319,0 0.6488,-29.18687 c 0.61008,-27.44532 0.53421,-29.54611 -1.27151,-35.20756 -2.06772,-6.48284 -6.52926,-14.80978 -7.93502,-14.80978 -0.47517,0 -5.82071,-4.70541 -11.87899,-10.45647 -10.52044,-9.98695 -15.93155,-13.76501 -19.71488,-13.76501 -0.9502,0 -3.71822,-0.98096 -6.15117,-2.17993 -4.11672,-2.02873 -5.63313,-2.17363 -21.86299,-2.08914 -15.22298,0.0793 -18.363,0.37171 -24.7059,2.30106 -17.99836,5.47467 -32.20369,17.42059 -40.93575,34.42478 -2.72441,5.30533 -4.01699,20.27079 -3.95393,45.77859 l 0.0604,24.46369 -2.17266,0 c -4.1794,0 -4.69276,1.98455 -4.00886,15.49731 0.80741,15.95296 1.87956,20.79563 6.1501,27.77852 2.76299,4.51786 3.73492,7.48619 4.84519,14.79752 1.74206,11.47187 2.66896,13.65846 9.02993,21.30193 l 5.14526,6.18265 -0.2287,11.23492 c -0.32642,16.0347 -0.82444,17.90118 -4.9367,18.50135 -4.70575,0.68678 -7.04347,4.72083 -9.54583,16.47258 -1.15351,5.41719 -2.49282,10.57578 -2.97624,11.46352 -0.48343,0.88776 -4.51204,2.86052 -8.95246,4.38392 -4.44042,1.52341 -12.10235,4.46632 -17.02652,6.5398 -4.92414,2.07348 -9.63928,3.76997 -10.47807,3.76997 -1.37209,0 -27.07037,12.15917 -44.51358,21.06164 -12.52761,6.39371 -24.42664,13.75462 -29.26151,18.10159 -4.47184,4.02056 -10.94558,14.17255 -10.94657,17.1662 -3.6e-4,1.09306 6.6468,1.27755 38.99657,1.08234 21.44837,-0.12943 105.92094,0.0938 187.71684,0.49601 81.7959,0.40224 149.10981,0.42333 149.58646,0.0469 0.47911,-0.37839 -0.23249,-2.98302 -1.59135,-5.82473 l 0,-10e-6 z"
       id="path7684"
       inkscape:connector-curvature="0" />
  </g>
</svg>
