<?xml version="1.0" encoding="utf-8"?>
<!-- Generator: Adobe Illustrator 16.0.4, SVG Export Plug-In . SVG Version: 6.00 Build 0)  -->
<!DOCTYPE svg PUBLIC "-//W3C//DTD SVG 1.1//EN" "http://www.w3.org/Graphics/SVG/1.1/DTD/svg11.dtd">
<svg version="1.1" id="Capa_1" xmlns="http://www.w3.org/2000/svg" xmlns:xlink="http://www.w3.org/1999/xlink" x="0px" y="0px"
	 width="84.15px" height="58.695px" viewBox="0 0 84.15 58.695" enable-background="new 0 0 84.15 58.695" xml:space="preserve">
<g>
	<path d="M42.063,20.3c5.29,0,9.575-4.283,9.575-9.556c0-5.29-4.292-9.566-9.575-9.566c-5.271,0-9.554,4.276-9.554,9.566
		C32.509,16.019,36.79,20.3,42.063,20.3z"/>
	<path d="M14.417,13.639c3.776,0,6.831-3.047,6.831-6.814C21.245,3.052,18.194,0,14.417,0c-3.759,0-6.82,3.052-6.82,6.825
		C7.597,10.592,10.658,13.639,14.417,13.639z"/>
	<circle cx="69.723" cy="6.818" r="6.818"/>
	<polygon points="84.154,30.017 81.354,17.046 74.254,15.471 72.805,14.014 70.651,16.341 71.846,29.113 69.734,31.469 
		67.656,29.156 68.848,16.341 66.697,14.014 65.237,15.471 58.134,17.046 56.501,24.642 48.421,22.856 46.372,20.819 43.365,24.087 
		45.039,41.979 42.07,45.28 39.167,42.04 40.843,24.087 37.821,20.819 35.785,22.856 27.689,24.647 26.048,17.046 18.952,15.471 
		17.492,14.014 15.345,16.341 16.54,29.113 14.424,31.469 12.351,29.156 13.542,16.341 11.388,14.014 9.935,15.471 2.828,17.046 
		0.035,30.017 0,30.017 5.192,41.042 22.388,41.042 21.911,43.246 21.859,43.25 29.138,58.695 55.013,58.695 62.292,43.25 
		61.816,41.042 78.962,41.042 	"/>
</g>
</svg>
