<?xml version="1.0" encoding="utf-8"?>
<!-- Generator: Adobe Illustrator 15.0.0, SVG Export Plug-In . SVG Version: 6.00 Build 0)  -->
<!DOCTYPE svg PUBLIC "-//W3C//DTD SVG 1.1//EN" "http://www.w3.org/Graphics/SVG/1.1/DTD/svg11.dtd">
<svg version="1.1" id="Layer_1" xmlns="http://www.w3.org/2000/svg" xmlns:xlink="http://www.w3.org/1999/xlink" x="0px" y="0px"
	 width="64px" height="64px" viewBox="0 0 64 64" enable-background="new 0 0 64 64" xml:space="preserve">
<g>
	<g>
		<path d="M11.292,23.486L56.61,10.672L54.555,3.4L5.795,17.187l1.781,6.299H7.534v6.223v1.333V60.6h50.671V31.042v-1.333v-6.223
			H11.292z M54.963,9.752l-4.546,1.286l3.26-5.836L54.963,9.752z M44.853,7.531l-3.376,6.035l-6.22,1.759l3.372-6.037L44.853,7.531z
			 M29.691,11.816l-3.375,6.036l-6.919,1.956l3.375-6.037L29.691,11.816z M13.832,16.299l-3.375,6.037L8.77,22.813l-1.328-4.705
			L13.832,16.299z M47.774,24.819l-4.89,4.889h-6.47l4.893-4.889H47.774z M32.018,24.819l-4.892,4.889h-7.187l4.89-4.889H32.018z
			 M10.649,29.708H8.868v-4.889h6.67L10.649,29.708z M56.871,29.708h-4.699l4.699-4.697V29.708z"/>
	</g>
</g>
</svg>
