<?xml version="1.0" encoding="utf-8"?>
<!-- Generator: Adobe Illustrator 17.0.0, SVG Export Plug-In . SVG Version: 6.00 Build 0)  -->
<!DOCTYPE svg PUBLIC "-//W3C//DTD SVG 1.1//EN" "http://www.w3.org/Graphics/SVG/1.1/DTD/svg11.dtd">
<svg version="1.1" id="Capa_1" xmlns="http://www.w3.org/2000/svg" xmlns:xlink="http://www.w3.org/1999/xlink" x="0px" y="0px"
	 width="64px" height="64px" viewBox="0 0 64 64" enable-background="new 0 0 64 64" xml:space="preserve">
<path d="M34.736,16.603c2.648-0.34,4.144-1.907,4.929-3.635c0.916-2.011-0.019-3.857-0.969-3.811
	c-0.95,0.043-1.567,1.358-2.287,2.625c-0.388,0.681-1.033,1.266-2.112,1.404c-4.769,0.613-5.813,4.495-5.699,6.508h3.44
	C32.017,19.074,32.148,16.938,34.736,16.603z"/>
<path d="M7.233,27.188c0,0-0.002,0.025-0.005,0.07c-0.103,0.588-0.166,1.189-0.166,1.806c0,0.32,0.019,0.636,0.047,0.948
	C6.937,36.767,7.29,53.301,14.88,53.31c9.537,0.012,10.631-13.062,10.631-13.062l5.356-0.004l5.355,0.004
	c0,0,1.094,13.073,10.631,13.062c7.59-0.01,7.942-16.544,7.771-23.299c0.027-0.312,0.047-0.628,0.047-0.948
	c0-0.616-0.064-1.218-0.166-1.806c-0.003-0.045-0.005-0.07-0.005-0.07l-0.006-0.002c-0.887-4.888-5.155-8.598-10.298-8.598
	c-2.567,0-4.916,0.927-6.737,2.459h-0.003h-2.172h-8.834h-2.172h-0.003c-1.822-1.532-4.17-2.459-6.737-2.459
	c-5.143,0-9.411,3.71-10.298,8.598L7.233,27.188z M41.635,29.318c0-0.403,0.328-0.731,0.731-0.731h2.36v-2.361
	c0-0.403,0.328-0.732,0.732-0.732h1.097c0.403,0,0.731,0.328,0.731,0.732v2.361h2.36c0.403,0,0.731,0.328,0.731,0.731v1.096
	c0,0.403-0.328,0.731-0.731,0.731h-2.36v2.361c0,0.403-0.328,0.732-0.731,0.732h-1.097c-0.403,0-0.732-0.328-0.732-0.732v-2.361
	h-2.36c-0.403,0-0.731-0.328-0.731-0.731V29.318z M19.739,28.431c0.793,0,1.436,0.643,1.436,1.436c0,0.793-0.643,1.436-1.436,1.436
	c-0.793,0-1.435-0.643-1.435-1.436C18.304,29.073,18.946,28.431,19.739,28.431z M16.419,25.335c0.793,0,1.436,0.643,1.436,1.436
	c0,0.793-0.643,1.436-1.436,1.436c-0.793,0-1.435-0.643-1.435-1.436C14.983,25.977,15.626,25.335,16.419,25.335z M16.419,31.795
	c0.793,0,1.436,0.643,1.436,1.436c0,0.793-0.643,1.435-1.436,1.435c-0.793,0-1.435-0.643-1.435-1.435
	C14.983,32.438,15.626,31.795,16.419,31.795z M13.099,28.431c0.793,0,1.436,0.643,1.436,1.436c0,0.793-0.643,1.436-1.436,1.436
	c-0.793,0-1.435-0.643-1.435-1.436C11.663,29.073,12.306,28.431,13.099,28.431z"/>
</svg>
