<?xml version="1.0" encoding="utf-8"?>
<!-- Generator: Adobe Illustrator 16.0.0, SVG Export Plug-In . SVG Version: 6.00 Build 0)  -->
<!DOCTYPE svg PUBLIC "-//W3C//DTD SVG 1.1//EN" "http://www.w3.org/Graphics/SVG/1.1/DTD/svg11.dtd">
<svg version="1.1" id="Layer_1" xmlns="http://www.w3.org/2000/svg" xmlns:xlink="http://www.w3.org/1999/xlink" x="0px" y="0px"
	 width="512px" height="512px" viewBox="0 0 512 512" enable-background="new 0 0 512 512" xml:space="preserve">
<path d="M305,512"/>
<line x1="305" y1="512" x2="368" y2="512"/>
<path d="M467.381,175.399c-37.844-6.75-73.656-24.641-102.188-53.125c-28.5-28.516-46.375-64.313-53.094-102.156
	c38.313-24,93.844-15.5,132.313,22.953C482.85,81.524,491.35,137.071,467.381,175.399z M440.943,201.837
	c-36.344-10.156-70.406-29-98.375-56.938c-27.938-27.969-46.781-62.031-56.891-98.359c-23.969,38.328-15.469,93.844,22.953,132.297
	C347.1,217.274,402.6,225.79,440.943,201.837z M288.787,372.149c-47.797,0-81.969,29.875-112.125,56.219
	c-33.313,29.125-62.188,54.375-104.672,41.281c-8.406-6.188-8.656-11.25-8.75-12.969c-0.594-11.5,13.344-26.938,20.188-32.625
	c0.844-0.688,1.328-1.625,1.984-2.469c11.219,3.906,24.109,1.656,33.094-7.313l217.625-179.141
	c-18-7.641-35.156-18.703-50.109-33.672c-14.969-14.969-26-32.141-33.625-50.109L73.271,368.993c-7.969,7.969-10.281,19-8.109,29.25
	c-0.672,0.406-1.422,0.594-2.047,1.094c-3.422,2.813-33.328,28.25-31.844,58.844c0.531,10.75,5.219,26.281,24.641,39.281
	l3.828,1.875c12.453,4.156,24.063,5.969,34.969,5.969c42.563,0,74.313-27.75,103.016-52.844
	c28.422-24.844,55.281-48.313,91.063-48.313c82.469,0,146.313,88.375,146.969,89.25c5.094,7.281,15.125,8.906,22.281,3.781
	c7.219-5.094,8.906-15.063,3.813-22.281C458.881,470.712,387.912,372.149,288.787,372.149z"/>
</svg>
