<?xml version="1.0" encoding="iso-8859-1"?>
<!-- Generator: Adobe Illustrator 16.0.4, SVG Export Plug-In . SVG Version: 6.00 Build 0)  -->
<!DOCTYPE svg PUBLIC "-//W3C//DTD SVG 1.1//EN" "http://www.w3.org/Graphics/SVG/1.1/DTD/svg11.dtd">
<svg version="1.1" id="Capa_1" xmlns="http://www.w3.org/2000/svg" xmlns:xlink="http://www.w3.org/1999/xlink" x="0px" y="0px"
	 width="64px" height="64px" viewBox="0 0 64 64" style="enable-background:new 0 0 64 64;" xml:space="preserve">
<g>
	<path d="M39.924,43.764L24.571,33.068c-0.177-0.985-0.217-2.011-0.082-3.086c0.186-1.47,0.638-2.912,1.225-4.265
		c0.975,1.713,2.428,3.544,4.401,4.194c-1.562,2.722-1.666,5.144,1.048,6.048c4.315,1.438,11.287-0.703,13.442-1.438
		c-1.188-0.326-2.432-1.604-3.131-3.387c-0.492-1.253-0.617-2.506-0.424-3.505l-6.285,3.747c0,0,8.924-10.379,10.784-13.457
		c1.313-2.172-4.784-1.778-8.491-1.358c0.258-0.297,0.496-0.62,0.709-0.97c1.789-2.953,1.137-6.62-1.455-8.191
		c-2.592-1.57-6.144-0.45-7.932,2.504c-1.097,1.809-1.273,3.884-0.652,5.583c-1.994,2.202-6.424,7.712-7.217,13.992
		c-0.945,7.488,3.979,12.768,8.253,17.021l-7.696,6.779l2.649,3.008l9.304-8.196c0.416-0.365,0.662-0.888,0.68-1.441
		c0.018-0.553-0.194-1.088-0.586-1.479c-0.291-0.291-0.59-0.586-0.89-0.883c-1.01-1.001-2.055-2.036-3.039-3.12l7.947,5.537
		l4.165,10.602l3.731-1.466l-4.387-11.167C40.499,44.307,40.249,43.99,39.924,43.764z M30.491,18.42
		c1.686,0.702,3.651,0.407,5.259-0.689c6.893-0.657,5.982,1.41,1.141,4.985c-0.416,0.306-0.824,0.628-1.228,0.96l-5.261-5.153
		C30.431,18.489,30.462,18.454,30.491,18.42z M28.776,20.538l4.962,4.861c-0.873,0.855-1.658,1.746-2.341,2.634
		c-1.643-0.627-3.48-3.467-4.208-5.144C27.712,22.028,28.256,21.237,28.776,20.538z"/>
	<path d="M42.8,25.548c1.42-0.667,3.468,0.704,4.573,3.061c1.106,2.357,0.852,4.807-0.568,5.474
		c-1.42,0.666-3.467-0.704-4.573-3.061S41.38,26.214,42.8,25.548z"/>
</g>
</svg>
